<svg width="32" height="33" viewBox="0 0 32 33" fill="none" xmlns="http://www.w3.org/2000/svg">
<path d="M28.4444 17.9597V26.8486C28.4444 27.8263 27.6444 28.6262 26.6667 28.6262H5.33334C4.35556 28.6262 3.55557 27.8263 3.55557 26.8486V17.9597C3.55557 16.9819 2.75555 16.1819 1.77777 16.1819C0.799991 16.1819 0 16.9819 0 17.9597V28.6262C0 30.5818 1.60001 32.1819 3.55557 32.1819H28.4444C30.4 32.1819 32 30.5818 32 28.6262V17.9597C32 16.9819 31.2 16.1819 30.2222 16.1819C29.2444 16.1819 28.4444 16.9819 28.4444 17.9597ZM17.7778 17.373L21.12 14.0308C21.812 13.3377 22.9351 13.3372 23.6276 14.0298C24.3202 14.7224 24.3198 15.8455 23.6267 16.5376L17.2444 22.9197C16.5527 23.6129 15.4296 23.6129 14.7378 22.9197L8.35556 16.5376C7.66246 15.8455 7.662 14.7224 8.35458 14.0298C9.04715 13.3372 10.1702 13.3377 10.8622 14.0308L14.2222 17.373V1.95972C14.2222 0.981937 15.0222 0.181885 16 0.181885C16.9778 0.181885 17.7778 0.981937 17.7778 1.95972V17.373Z" fill="#1752F1"/>
</svg>
