<svg width="14" height="13" viewBox="0 0 14 13" fill="none" xmlns="http://www.w3.org/2000/svg">
<path d="M7.55365 8.49551L5.93726 6.86401L5.95636 6.84451C7.03446 5.62063 7.83992 4.17253 8.31726 2.60001H10.1818V1.29999H5.72729V0H4.45453V1.29999H0V2.59351H7.10815C6.68179 3.84801 6.00724 5.03751 5.09088 6.07751C4.49906 5.40801 4.00909 4.67349 3.62091 3.89999H2.34821C2.81276 4.95949 3.44911 5.96051 4.24457 6.86401L1.00543 10.127L1.90912 11.05L5.09088 7.79999L7.07001 9.8215L7.55365 8.49551ZM11.1364 5.20001H9.86365L7 13H8.27271L8.98547 11.05H12.0082L12.7273 13H14L11.1364 5.20001ZM9.46912 9.75L10.5 6.93549L11.5309 9.75H9.46912Z" fill="#297DFA"/>
</svg>
