<svg width="13" height="14" viewBox="0 0 13 14" fill="none" xmlns="http://www.w3.org/2000/svg">
<path d="M11.5556 1.39999H10.8333V0H9.38892V1.39999H3.61108V0H2.16669V1.39999H1.44446C0.642796 1.39999 0.00720215 2.02999 0.00720215 2.79999L0 12.6C0 13.3732 0.646718 14 1.44446 14H11.5556C12.35 14 13 13.37 13 12.6V2.79999C13 2.02999 12.35 1.39999 11.5556 1.39999ZM11.5556 12.6H1.44446V5.60001H11.5556V12.6ZM11.5556 4.20001H1.44446V2.79999H11.5556V4.20001ZM4.33331 8.39999H2.88892V7H4.33331V8.39999ZM7.22223 8.39999H5.77777V7H7.22223V8.39999ZM10.1111 8.39999H8.66669V7H10.1111V8.39999ZM4.33331 11.2H2.88892V9.79999H4.33331V11.2ZM7.22223 11.2H5.77777V9.79999H7.22223V11.2ZM10.1111 11.2H8.66669V9.79999H10.1111V11.2Z" fill="#297DFA"/>
</svg>
