<svg width="14" height="14" viewBox="0 0 14 14" fill="none" xmlns="http://www.w3.org/2000/svg">
<path d="M6.99298 0C3.12898 0 0 3.136 0 7C0 10.864 3.12898 14 6.99298 14C8.92848 14 10.6802 13.216 11.9481 11.949C13.216 10.682 14 8.932 14 7C14 3.136 10.864 0 6.99298 0ZM11.844 4.20001H9.77899C9.55991 3.33303 9.23549 2.49614 8.81299 1.70801C10.0899 2.14761 11.1658 3.03222 11.844 4.20001ZM7 1.42801C7.581 2.26801 8.03598 3.19901 8.33698 4.20001H5.66302C5.96403 3.19901 6.419 2.26801 7 1.42801ZM1.58197 8.39999C1.46997 7.95199 1.40002 7.483 1.40002 7C1.40002 6.517 1.46997 6.04801 1.58197 5.60001H3.948C3.892 6.06201 3.84998 6.524 3.84998 7C3.84998 7.476 3.892 7.93799 3.948 8.39999H1.58197ZM2.15601 9.79999H4.22101C4.44501 10.675 4.76701 11.515 5.18701 12.292C3.90879 11.8548 2.83209 10.9696 2.15601 9.79999ZM4.22101 4.20001H2.15601C2.83209 3.03044 3.90879 2.14521 5.18701 1.70801C4.76451 2.49614 4.4401 3.33303 4.22101 4.20001ZM7 12.572C6.419 11.732 5.96403 10.801 5.66302 9.79999H8.33698C8.03598 10.801 7.581 11.732 7 12.572ZM8.638 8.39999H5.362C5.299 7.93799 5.25 7.476 5.25 7C5.25 6.524 5.299 6.05501 5.362 5.60001H8.638C8.701 6.05501 8.75 6.524 8.75 7C8.75 7.476 8.701 7.93799 8.638 8.39999ZM8.81299 12.292C9.23299 11.515 9.55499 10.675 9.77899 9.79999H11.844C11.1658 10.9678 10.0899 11.8524 8.81299 12.292ZM10.052 8.39999C10.108 7.93799 10.15 7.476 10.15 7C10.15 6.524 10.108 6.06201 10.052 5.60001H12.418C12.53 6.04801 12.6 6.517 12.6 7C12.6 7.483 12.53 7.95199 12.418 8.39999H10.052Z" fill="#297DFA"/>
</svg>
